<svg id="Capa_3" data-name="Capa 3" xmlns="http://www.w3.org/2000/svg" viewBox="0 0 750 677"><defs><style>.cls-1{fill:#f0f;}.cls-2{fill:#5aff5a;}</style></defs><title>Mesa de trabajo 2 copia</title><circle cx="375.22" cy="339.01" r="298.78" transform="translate(-129.82 364.61) rotate(-45)"/><path class="cls-1" d="M375.22,47.22C536.11,47.22,667,178.12,667,339S536.11,630.79,375.22,630.79,83.44,499.9,83.44,339,214.33,47.22,375.22,47.22m0-14C206.61,33.22,69.44,170.4,69.44,339S206.61,644.79,375.22,644.79,681,507.62,681,339,543.83,33.22,375.22,33.22Z"/><path class="cls-2" d="M354.69,97.94l3.29,3.74h3.74l.43-3.74q61.73,15.81,58.65,44.81l4.83,22.4h-7.46q1.53-14.93-5.93-14.93H408.5l2,18.67-.66,3.73h-7.47q-7.47,0-6.15-11.2L392,165.15h-3.74q-18.66-14.93-35.8-14.93-37.33,0-86.76,78.41l-11.86,41.08q-5.49,49.64,40.85,70.94l-.88,7.47h-7.46l-.44,3.73h7.47q26.57,0,78.19-67.21l.44-3.73h-3.73q-29.65,35.8-54.26,52.27h-3.73l46.34-48.54H330.53q.87-7.45-10.33-7.47l-3.29-3.73.44-3.73q.66-7.47,38.44-11.21l.87-7.46-4.17,3.73h-22.4l-19.55-26.14,4.17-3.73.22-3.74,40.86,3.74L454,213.7l.44-3.74q-18.68,0-17.79-7.47h3.73l3.3,3.74,4.17-3.74h3.73q39.75,11.43,38.88,18.67l-.22,3.74L486,228.63l-.44,3.74h14.93l-.88,7.46h-3.73l-60.4,7.47-.44,3.74h3.73l34.05-3.74-.88,7.47q-37.35,0-40.64,29.87l-17.79,59.75,3.52,3.73-.44,3.73-5.93,18.67.66,29.88-8.13,7.47,3.07,3.73q-15.37,4.83-16.69,18.67h-11.2q-7.47,0-4-33.61h-3.74l-2.85,26.14H356.66l2-18.67L357.76,378h-7.47q-21.3,14.94-42.83,14.94H288.79l-6.37-7.47.22-3.73h7.47l.44-3.74q-77.53,0-83.91-52.27a269.57,269.57,0,0,1-4.39-48.33A259.34,259.34,0,0,1,204,247.3l.66-7.47q3.29-28.54,26.8-74.68h3.73l-.88,7.47-14.06,26.14-.22,3.73h3.74q3.74-34,72.7-85.88h3.73l.44-3.73h-3.73l-11.64,3.73Q296.26,98,354.69,97.94ZM252.33,146.48l-.66,3.74L235.2,165.15l.44-3.73Zm25.26-26.13h3.74l-29,26.13.44-3.73Zm20,261.38-.22,3.73H316l.22-3.73Zm9-48.55h3.74l-8.13,7.47h-3.73Zm18.23,37.34,31.63-14.93.88-7.47h-3.73Zm7.69-242.71-.22,3.74h26.14l.22-3.74Zm85,78.42h14.93l-8.34,7.47Z"/><path class="cls-2" d="M264.12,579.43c10.66-11.64,12.93-29.41,7.43-49.77L234.06,393.28c-3.55-13.25-10.34-30.7-22-37.16v-.65H290.3v.65c-8.73,7.43-12.61,22.94-8.41,40.07l18.42,72.07c4.53,17.77,6.79,33,7.76,58.49h1.29A300.82,300.82,0,0,1,332,465l34.57-70.78c8.73-18.1,13.25-30.7,15.84-40.72h1.94a214.79,214.79,0,0,0,15.83,40.4l31.35,61.4c15.84,31.35,21,49.12,25.53,71.42h1.29a395.65,395.65,0,0,1,10-65.93l15.84-64.63c4.52-17.77.32-32.32-8.08-40.07l.32-.65h71.74v.65c-11.63,6.46-18.74,23.91-22,37.49l-32.64,136c-5.17,22-2.26,36.84,7.43,49.77v.64H425.38v-.64c5.49-9,5.82-23.92-1.94-40.08l-23.59-50.41c-7.11-15.19-13.25-35.55-15.19-49.44h-1.29a234.43,234.43,0,0,1-14.22,42L342,539.35c-7.43,16.16-7.75,31-1.61,40.08v.64H264.12Z"/></svg>